<?xml version="1.0" encoding="UTF-8" standalone="no"?>
<svg
   version="1.1"
   id="svg1"
   width="99.798531"
   height="99.680695"
   sodipodi:docname="piecePresentSpot.svg"
   inkscape:version="1.3.2 (091e20e, 2023-11-25, custom)"
   xmlns:inkscape="http://www.inkscape.org/namespaces/inkscape"
   xmlns:sodipodi="http://sodipodi.sourceforge.net/DTD/sodipodi-0.dtd"
   xmlns="http://www.w3.org/2000/svg"
   xmlns:svg="http://www.w3.org/2000/svg">
  <sodipodi:namedview
     id="namedview1"
     pagecolor="#ffffff"
     bordercolor="#000000"
     borderopacity="0.25"
     inkscape:showpageshadow="2"
     inkscape:pageopacity="0.0"
     inkscape:pagecheckerboard="0"
     inkscape:deskcolor="#d1d1d1"
     inkscape:zoom="2.9545337"
     inkscape:cx="-54.154061"
     inkscape:cy="57.030996"
     inkscape:window-width="1920"
     inkscape:window-height="1009"
     inkscape:window-x="-8"
     inkscape:window-y="-8"
     inkscape:window-maximized="1"
     inkscape:current-layer="svg1" />
  <defs
     id="defs1">
    <linearGradient
       id="swatch6">
      <stop
         style="stop-color:#000000;stop-opacity:1;"
         offset="0"
         id="stop6" />
    </linearGradient>
  </defs>
  <path
     style="opacity:0.429;fill:#000000;fill-opacity:1;stroke:none;stroke-width:0.238537;stroke-dasharray:none;stroke-opacity:1"
     d="m -76.668314,96.287359 c -12.03083,-0.61675 -23.446766,-5.75922 -32.189946,-14.50041 -21.36591,-21.36106 -19.14394,-56.155725 4.77577,-74.785455 5.273906,-4.10756 12.514366,-7.53813001 19.189926,-9.0923 6.75811,-1.57338 15.06001,-1.62407 21.93134,-0.1339 5.30701,1.15092 12.3276,4.14128 16.8842,7.19168 12.49489,8.36465 20.58087,21.81455 22.08161,36.72964 1.23219,12.246305 -2.31056,24.780375 -9.84145,34.818475 -6.70886,8.9424 -16.47367,15.49071 -27.2292,18.26 -5.27478,1.35813 -9.88755,1.80523 -15.60225,1.51227 z m 5.8799,-24.05969 c 10.64057,-1.18649 19.36974,-8.73254 22.1796,-19.17348 0.58285,-2.16579 0.641,-2.76543 0.63567,-6.55556 -0.005,-3.732995 -0.0712,-4.415045 -0.62702,-6.485435 -2.62207,-9.76679 -10.40934,-17.03076 -20.26115,-18.89962 -2.46856,-0.46828 -7.21372,-0.46298 -9.71148,0.0108 -5.38653,1.02181 -9.92726,3.54953 -13.90032,7.73801 -3.2751,3.45266 -5.21559,7.03388 -6.41227,11.83397 -0.66949,2.68542 -0.73579,8.519325 -0.127,11.174075 2.74808,11.98353 12.70962,20.21193 24.9161,20.58112 0.56239,0.017 2.05093,-0.0837 3.30787,-0.22391 z"
     id="path29" />
  <g
     id="g3"
     inkscape:export-filename="piecePresentSpot.svg"
     inkscape:export-xdpi="96"
     inkscape:export-ydpi="96">
    <circle
       style="opacity:0.429;fill:none;stroke:none;stroke-width:0.236"
       id="path1"
       cx="50.118"
       cy="50.118"
       r="50" />
    <circle
       style="opacity:0.429;fill:none;stroke:none;stroke-width:0.236"
       id="path2"
       cx="49.618"
       cy="49.618"
       r="37" />
    <path
       style="opacity:0.429;fill:#000000;stroke:#000000;stroke-width:0.0282409"
       d="M 46.908562,99.849192 C 46.678208,99.822717 45.870471,99.742219 45.113592,99.670305 34.223123,98.635563 23.615558,93.722106 15.60596,86.00228 5.2284786,76.000232 -0.24340852,62.316193 0.37167957,47.904543 1.1412207,29.874025 11.690601,13.649622 27.899144,5.5687217 34.278275,2.3883541 40.819532,0.68779947 47.905075,0.36770632 66.154765,-0.45673314 83.302931,8.7496655 92.801531,24.471431 c 3.206729,5.307672 5.484789,11.495964 6.453538,17.530878 0.530746,3.306337 0.605299,4.322871 0.601163,8.197032 -0.0042,3.974455 -0.137914,5.592479 -0.726621,8.795356 -2.579046,14.03136 -10.951948,26.228337 -23.10913,33.663541 -1.831324,1.120018 -5.782686,3.085903 -7.691938,3.826897 -3.985315,1.546731 -8.237219,2.608723 -12.564793,3.13829 -1.524425,0.186546 -7.803505,0.346633 -8.855188,0.225767 z M 53.080427,86.630116 C 63.718218,85.598293 73.251208,80.209795 79.55286,71.666643 83.608447,66.168482 86.00845,59.804201 86.647822,52.852357 86.849304,50.661662 86.72642,46.353761 86.401471,44.216106 84.722577,33.171631 78.451507,23.687796 68.986699,17.879481 61.051506,13.009852 51.270792,11.322655 42.025786,13.228658 29.843081,15.740315 19.640094,24.335066 15.041896,35.959242 c -2.441396,6.17181 -3.18747,13.145561 -2.105948,19.684843 2.467195,14.917566 13.760834,26.929178 28.406704,30.212608 1.379235,0.309208 3.963249,0.722937 5.087251,0.814523 1.25092,0.10193 5.443035,0.07602 6.650524,-0.0411 z"
       id="path3" />
  </g>
</svg>
